<svg width="70" height="70" viewBox="0 0 70 70" fill="none" xmlns="http://www.w3.org/2000/svg">
<circle cx="35" cy="35" r="35" fill="#F4E4FF"/>
<mask id="mask0_236_5443" style="mask-type:alpha" maskUnits="userSpaceOnUse" x="0" y="0" width="70" height="70">
<circle cx="35" cy="35" r="35" fill="#F4E4FF"/>
</mask>
<g mask="url(#mask0_236_5443)">
<path d="M34.9999 40.9468C42.7613 40.9468 49.0532 34.6549 49.0532 26.8934C49.0532 19.132 42.7613 12.8401 34.9999 12.8401C27.2384 12.8401 20.9465 19.132 20.9465 26.8934C20.9465 34.6549 27.2384 40.9468 34.9999 40.9468Z" fill="#A07CB8"/>
<path d="M35 48.3867C20.8757 48.3867 9.37329 57.7611 9.37329 69.3117C9.37329 70.0929 9.99352 70.7067 10.7829 70.7067H59.217C60.0064 70.7067 60.6266 70.0929 60.6266 69.3117C60.6266 57.7611 49.1242 48.3867 35 48.3867Z" fill="#A07CB8"/>
</g>
</svg>
