<svg width="9" height="8" viewBox="0 0 9 8" fill="none" xmlns="http://www.w3.org/2000/svg">
<path fill-rule="evenodd" clip-rule="evenodd" d="M0.258309 0.258309C-0.0861027 0.602721 -0.0861033 1.16112 0.258309 1.50553L2.77496 4.02219L0.302694 6.49446C-0.041718 6.83887 -0.0417178 7.39727 0.302694 7.74169C0.647106 8.0861 1.20551 8.0861 1.54992 7.74169L4.02219 5.26942L6.49444 7.74167C6.83885 8.08608 7.39725 8.08608 7.74167 7.74167C8.08608 7.39725 8.08608 6.83885 7.74167 6.49444L5.26942 4.02219L7.78605 1.50555C8.13046 1.16114 8.13046 0.602741 7.78605 0.258329C7.44164 -0.0860832 6.88324 -0.0860838 6.53883 0.258328L4.02219 2.77496L1.50554 0.258309C1.16112 -0.086103 0.602721 -0.0861029 0.258309 0.258309Z" fill="#76363E"/>
</svg>
