<svg width="25" height="25" viewBox="0 0 25 25" fill="none" xmlns="http://www.w3.org/2000/svg">
<path fill-rule="evenodd" clip-rule="evenodd" d="M12.5 25C19.4036 25 25 19.4036 25 12.5C25 5.59644 19.4036 0 12.5 0C5.59644 0 0 5.59644 0 12.5C0 19.4036 5.59644 25 12.5 25ZM14.2287 7H10.7975C10.2257 7 9.91654 7.32263 9.91654 7.8757V12.7458H8.60278C8.27821 12.7458 8 13.0223 8 13.345C8 13.6676 8.27821 13.9288 8.60278 13.9288H9.91654V14.9581H8.60278C8.29366 14.9581 8.01546 15.2193 8.01546 15.5419C8.01546 15.8645 8.27821 16.1411 8.60278 16.1411H9.91654V17.0936C9.91654 17.5852 10.3184 18 10.813 18C11.323 18 11.7249 17.5852 11.7249 17.0936V16.1411H13.3478C13.6723 16.1411 13.9505 15.8645 13.9505 15.5419C13.9505 15.2193 13.6723 14.9581 13.3478 14.9581H11.7249V13.9288H14.1206C16.3926 13.9288 18 12.6383 18 10.4413C18 8.19832 16.3926 7 14.2287 7ZM14.1206 12.3003H11.7249V8.64385H14.1206C15.3107 8.64385 16.1917 9.25838 16.1917 10.5028C16.1917 11.7011 15.3107 12.3003 14.1206 12.3003Z" fill="#F8F3F3"/>
</svg>
