<svg width="20" height="20" viewBox="0 0 20 20" fill="none" xmlns="http://www.w3.org/2000/svg">
<circle cx="10" cy="10" r="10" fill="#E43D3D"/>
<path fill-rule="evenodd" clip-rule="evenodd" d="M6.25831 6.25831C5.9139 6.60272 5.9139 7.16112 6.25831 7.50553L8.77496 10.0222L6.30269 12.4945C5.95828 12.8389 5.95828 13.3973 6.30269 13.7417C6.64711 14.0861 7.20551 14.0861 7.54992 13.7417L10.0222 11.2694L12.4944 13.7417C12.8389 14.0861 13.3973 14.0861 13.7417 13.7417C14.0861 13.3973 14.0861 12.8389 13.7417 12.4944L11.2694 10.0222L13.7861 7.50555C14.1305 7.16114 14.1305 6.60274 13.7861 6.25833C13.4416 5.91392 12.8832 5.91392 12.5388 6.25833L10.0222 8.77496L7.50554 6.25831C7.16112 5.9139 6.60272 5.9139 6.25831 6.25831Z" fill="#F8F3F3"/>
</svg>
