<svg width="60" height="60" viewBox="0 0 60 60" fill="none" xmlns="http://www.w3.org/2000/svg">
<path d="M40.475 5H19.525C10.425 5 5 10.425 5 19.525V40.45C5 49.575 10.425 55 19.525 55H40.45C49.55 55 54.975 49.575 54.975 40.475V19.525C55 10.425 49.575 5 40.475 5Z" fill="#F588A9"/>
<path d="M30 39.7001C35.3572 39.7001 39.7 35.3572 39.7 30C39.7 24.6429 35.3572 20.3 30 20.3C24.6428 20.3 20.3 24.6429 20.3 30C20.3 35.3572 24.6428 39.7001 30 39.7001Z" fill="white"/>
<path d="M42.5 18.75C41.825 18.75 41.2 18.5 40.725 18.025C40.5 17.775 40.325 17.5 40.2 17.2C40.075 16.9 40 16.575 40 16.25C40 15.925 40.075 15.6 40.2 15.3C40.325 14.975 40.5 14.725 40.725 14.475C41.3 13.9 42.175 13.625 42.975 13.8C43.15 13.825 43.3 13.875 43.45 13.95C43.6 14 43.75 14.075 43.9 14.175C44.025 14.25 44.15 14.375 44.275 14.475C44.5 14.725 44.675 14.975 44.8 15.3C44.925 15.6 45 15.925 45 16.25C45 16.575 44.925 16.9 44.8 17.2C44.675 17.5 44.5 17.775 44.275 18.025C44.025 18.25 43.75 18.425 43.45 18.55C43.15 18.675 42.825 18.75 42.5 18.75Z" fill="white"/>
</svg>
