<svg width="50" height="50" viewBox="0 0 50 50" fill="none" xmlns="http://www.w3.org/2000/svg">
<g filter="url(#filter0_ii_237_5454)">
<rect x="11.2891" y="6.4209" width="31.7261" height="40.2954" rx="1.4" fill="url(#paint0_linear_237_5454)"/>
<rect x="11.2891" y="6.4209" width="31.7261" height="40.2954" rx="1.4" fill="url(#paint1_linear_237_5454)"/>
</g>
<g filter="url(#filter1_f_237_5454)">
<path d="M29.6771 6.4209H13.8896C12.7736 6.4209 11.8689 7.40027 11.8689 8.6084V44.5288C11.8689 44.608 11.8728 44.6862 11.8803 44.7633H35.09C36.1223 44.7633 36.9591 43.8573 36.9591 42.7399V14.9025C36.9591 14.5192 36.8185 14.1516 36.5681 13.8806L29.6771 6.4209Z" fill="#91879F"/>
</g>
<g filter="url(#filter2_iiii_237_5454)">
<path d="M27.9144 3.73191C27.6434 3.46086 27.2758 3.30859 26.8925 3.30859H7.71553C6.59804 3.30859 5.69214 4.2145 5.69214 5.33198V41.629C5.69214 42.7465 6.59804 43.6524 7.71553 43.6524H35.3521C36.4696 43.6524 37.3755 42.7465 37.3755 41.629V13.7916C37.3755 13.4083 37.2232 13.0407 36.9522 12.7697L27.9144 3.73191Z" fill="url(#paint2_linear_237_5454)"/>
</g>
<g filter="url(#filter3_f_237_5454)">
<path d="M26.9552 3.90703C26.9552 3.61595 27.0388 3.43004 26.8804 3.39893C27.0309 3.40852 27.2499 3.46308 27.3885 3.51748C27.5666 3.58742 27.3467 3.74183 27.4861 3.87799C27.4902 3.88196 27.4942 3.88595 27.4983 3.88999L36.536 12.9277C36.5635 12.9553 36.5899 12.9838 36.6149 13.0133C36.7383 13.1583 36.8311 13.3255 36.8891 13.5046C36.9352 13.6471 36.9593 13.7972 36.9593 13.9497V14.041C36.9593 13.7054 36.7165 13.5046 36.536 13.5046H28.6896C27.7317 13.5046 26.9552 12.7281 26.9552 11.7703V3.90703Z" fill="#D2C5DF"/>
</g>
<g filter="url(#filter4_ii_237_5454)">
<path d="M27.3714 3.74895C27.3714 3.45787 27.143 3.34264 26.9846 3.31152C27.1352 3.32112 27.2822 3.35415 27.4207 3.40856C27.5988 3.47849 27.7629 3.58375 27.9023 3.71991C27.9064 3.72388 27.9105 3.72787 27.9145 3.7319L36.9522 12.7697C36.9797 12.7972 37.0061 12.8258 37.0311 12.8552C37.1545 13.0003 37.2473 13.1674 37.3053 13.3465C37.3514 13.489 37.3755 13.6391 37.3755 13.7916V13.8829C37.3755 13.5473 37.1328 13.3465 36.9522 13.3465H29.1058C28.1479 13.3465 27.3714 12.57 27.3714 11.6122V3.74895Z" fill="url(#paint3_linear_237_5454)"/>
</g>
<path d="M27.3714 3.74895C27.3714 3.45787 27.143 3.34264 26.9846 3.31152C27.1352 3.32112 27.2822 3.35415 27.4207 3.40856C27.5988 3.47849 27.7629 3.58375 27.9023 3.71991C27.9064 3.72388 27.9105 3.72787 27.9145 3.7319L36.9522 12.7697C36.9797 12.7972 37.0061 12.8258 37.0311 12.8552C37.1545 13.0003 37.2473 13.1674 37.3053 13.3465C37.3514 13.489 37.3755 13.6391 37.3755 13.7916V13.8829C37.3755 13.5473 37.1328 13.3465 36.9522 13.3465H29.1058C28.1479 13.3465 27.3714 12.57 27.3714 11.6122V3.74895Z" fill="url(#paint4_linear_237_5454)"/>
<rect x="11.4734" y="17.6936" width="20.1098" height="1.43399" rx="0.496094" fill="url(#paint5_linear_237_5454)"/>
<rect x="11.4734" y="22.0295" width="20.1098" height="1.43399" rx="0.496094" fill="url(#paint6_linear_237_5454)"/>
<rect x="11.4734" y="26.3655" width="20.1098" height="1.43399" rx="0.496094" fill="url(#paint7_linear_237_5454)"/>
<rect x="11.4734" y="30.7012" width="12.985" height="1.43399" rx="0.496094" fill="url(#paint8_linear_237_5454)"/>
<g filter="url(#filter5_f_237_5454)">
<path d="M37.1802 21.0693H35.0209C34.809 21.0693 34.6071 21.1636 34.4654 21.3285L33.057 22.9689C32.9296 23.1174 32.9296 23.3425 33.057 23.491L34.4654 25.1315C34.6071 25.2964 34.809 25.3906 35.0209 25.3906H37.1802V21.0693Z" fill="#BAA8C1"/>
</g>
<g filter="url(#filter6_ii_237_5454)">
<path d="M35.3605 20.8158C35.5087 20.6509 35.72 20.5566 35.9417 20.5566H41.0987C41.3144 20.5566 41.4893 20.7315 41.4893 20.9473V24.4873C41.4893 24.703 41.3144 24.8779 41.0987 24.8779H35.9417C35.72 24.8779 35.5087 24.7837 35.3605 24.6188L33.8869 22.9783C33.7535 22.8299 33.7535 22.6047 33.8869 22.4562L35.3605 20.8158Z" fill="url(#paint9_linear_237_5454)"/>
<path d="M35.3605 20.8158C35.5087 20.6509 35.72 20.5566 35.9417 20.5566H41.0987C41.3144 20.5566 41.4893 20.7315 41.4893 20.9473V24.4873C41.4893 24.703 41.3144 24.8779 41.0987 24.8779H35.9417C35.72 24.8779 35.5087 24.7837 35.3605 24.6188L33.8869 22.9783C33.7535 22.8299 33.7535 22.6047 33.8869 22.4562L35.3605 20.8158Z" fill="url(#paint10_linear_237_5454)"/>
</g>
<g filter="url(#filter7_f_237_5454)">
<path d="M42.8688 32.0132V36.3345H39.7343C39.5186 36.3345 39.3131 36.2403 39.169 36.0753L37.7355 34.4349C37.6057 34.2864 37.6057 34.0613 37.7355 33.9128L39.169 32.2723C39.3131 32.1074 39.5186 32.0132 39.7343 32.0132H42.8688Z" fill="#91879F"/>
</g>
<g filter="url(#filter8_ii_237_5454)">
<path d="M40.0236 31.6801C40.1718 31.5151 40.3831 31.4209 40.6048 31.4209H45.7618C45.9775 31.4209 46.1524 31.5958 46.1524 31.8115V35.3516C46.1524 35.5673 45.9775 35.7422 45.7618 35.7422H40.6048C40.3831 35.7422 40.1718 35.648 40.0236 35.483L38.55 33.8426C38.4166 33.6941 38.4166 33.469 38.55 33.3205L40.0236 31.6801Z" fill="url(#paint11_linear_237_5454)"/>
<path d="M40.0236 31.6801C40.1718 31.5151 40.3831 31.4209 40.6048 31.4209H45.7618C45.9775 31.4209 46.1524 31.5958 46.1524 31.8115V35.3516C46.1524 35.5673 45.9775 35.7422 45.7618 35.7422H40.6048C40.3831 35.7422 40.1718 35.648 40.0236 35.483L38.55 33.8426C38.4166 33.6941 38.4166 33.469 38.55 33.3205L40.0236 31.6801Z" fill="url(#paint12_linear_237_5454)"/>
</g>
<defs>
<filter id="filter0_ii_237_5454" x="11.1891" y="6.3209" width="31.9261" height="40.4954" filterUnits="userSpaceOnUse" color-interpolation-filters="sRGB">
<feFlood flood-opacity="0" result="BackgroundImageFix"/>
<feBlend mode="normal" in="SourceGraphic" in2="BackgroundImageFix" result="shape"/>
<feColorMatrix in="SourceAlpha" type="matrix" values="0 0 0 0 0 0 0 0 0 0 0 0 0 0 0 0 0 0 127 0" result="hardAlpha"/>
<feOffset dx="0.1" dy="-0.1"/>
<feGaussianBlur stdDeviation="0.05"/>
<feComposite in2="hardAlpha" operator="arithmetic" k2="-1" k3="1"/>
<feColorMatrix type="matrix" values="0 0 0 0 0.596078 0 0 0 0 0.529412 0 0 0 0 0.67451 0 0 0 1 0"/>
<feBlend mode="normal" in2="shape" result="effect1_innerShadow_237_5454"/>
<feColorMatrix in="SourceAlpha" type="matrix" values="0 0 0 0 0 0 0 0 0 0 0 0 0 0 0 0 0 0 127 0" result="hardAlpha"/>
<feOffset dx="-0.1" dy="0.1"/>
<feGaussianBlur stdDeviation="0.1"/>
<feComposite in2="hardAlpha" operator="arithmetic" k2="-1" k3="1"/>
<feColorMatrix type="matrix" values="0 0 0 0 0.811765 0 0 0 0 0.8 0 0 0 0 0.827451 0 0 0 1 0"/>
<feBlend mode="normal" in2="effect1_innerShadow_237_5454" result="effect2_innerShadow_237_5454"/>
</filter>
<filter id="filter1_f_237_5454" x="10.8689" y="5.4209" width="27.0903" height="40.3423" filterUnits="userSpaceOnUse" color-interpolation-filters="sRGB">
<feFlood flood-opacity="0" result="BackgroundImageFix"/>
<feBlend mode="normal" in="SourceGraphic" in2="BackgroundImageFix" result="shape"/>
<feGaussianBlur stdDeviation="0.5" result="effect1_foregroundBlur_237_5454"/>
</filter>
<filter id="filter2_iiii_237_5454" x="5.59214" y="3.00859" width="32.0833" height="40.7438" filterUnits="userSpaceOnUse" color-interpolation-filters="sRGB">
<feFlood flood-opacity="0" result="BackgroundImageFix"/>
<feBlend mode="normal" in="SourceGraphic" in2="BackgroundImageFix" result="shape"/>
<feColorMatrix in="SourceAlpha" type="matrix" values="0 0 0 0 0 0 0 0 0 0 0 0 0 0 0 0 0 0 127 0" result="hardAlpha"/>
<feOffset dx="0.3" dy="-0.3"/>
<feGaussianBlur stdDeviation="0.3"/>
<feComposite in2="hardAlpha" operator="arithmetic" k2="-1" k3="1"/>
<feColorMatrix type="matrix" values="0 0 0 0 0.807843 0 0 0 0 0.768627 0 0 0 0 0.85098 0 0 0 1 0"/>
<feBlend mode="normal" in2="shape" result="effect1_innerShadow_237_5454"/>
<feColorMatrix in="SourceAlpha" type="matrix" values="0 0 0 0 0 0 0 0 0 0 0 0 0 0 0 0 0 0 127 0" result="hardAlpha"/>
<feOffset dx="0.1" dy="-0.1"/>
<feGaussianBlur stdDeviation="0.1"/>
<feComposite in2="hardAlpha" operator="arithmetic" k2="-1" k3="1"/>
<feColorMatrix type="matrix" values="0 0 0 0 0.709804 0 0 0 0 0.690196 0 0 0 0 0.733333 0 0 0 1 0"/>
<feBlend mode="normal" in2="effect1_innerShadow_237_5454" result="effect2_innerShadow_237_5454"/>
<feColorMatrix in="SourceAlpha" type="matrix" values="0 0 0 0 0 0 0 0 0 0 0 0 0 0 0 0 0 0 127 0" result="hardAlpha"/>
<feOffset dy="-0.1"/>
<feGaussianBlur stdDeviation="0.1"/>
<feComposite in2="hardAlpha" operator="arithmetic" k2="-1" k3="1"/>
<feColorMatrix type="matrix" values="0 0 0 0 0.72549 0 0 0 0 0.65098 0 0 0 0 0.8 0 0 0 1 0"/>
<feBlend mode="normal" in2="effect2_innerShadow_237_5454" result="effect3_innerShadow_237_5454"/>
<feColorMatrix in="SourceAlpha" type="matrix" values="0 0 0 0 0 0 0 0 0 0 0 0 0 0 0 0 0 0 127 0" result="hardAlpha"/>
<feOffset dx="-0.15" dy="0.15"/>
<feGaussianBlur stdDeviation="0.05"/>
<feComposite in2="hardAlpha" operator="arithmetic" k2="-1" k3="1"/>
<feColorMatrix type="matrix" values="0 0 0 0 0.952941 0 0 0 0 0.941176 0 0 0 0 0.964706 0 0 0 1 0"/>
<feBlend mode="normal" in2="effect3_innerShadow_237_5454" result="effect4_innerShadow_237_5454"/>
</filter>
<filter id="filter3_f_237_5454" x="26.3804" y="2.89893" width="11.0789" height="11.6421" filterUnits="userSpaceOnUse" color-interpolation-filters="sRGB">
<feFlood flood-opacity="0" result="BackgroundImageFix"/>
<feBlend mode="normal" in="SourceGraphic" in2="BackgroundImageFix" result="shape"/>
<feGaussianBlur stdDeviation="0.25" result="effect1_foregroundBlur_237_5454"/>
</filter>
<filter id="filter4_ii_237_5454" x="26.9846" y="3.21152" width="10.4909" height="10.6713" filterUnits="userSpaceOnUse" color-interpolation-filters="sRGB">
<feFlood flood-opacity="0" result="BackgroundImageFix"/>
<feBlend mode="normal" in="SourceGraphic" in2="BackgroundImageFix" result="shape"/>
<feColorMatrix in="SourceAlpha" type="matrix" values="0 0 0 0 0 0 0 0 0 0 0 0 0 0 0 0 0 0 127 0" result="hardAlpha"/>
<feOffset dx="0.1"/>
<feGaussianBlur stdDeviation="0.075"/>
<feComposite in2="hardAlpha" operator="arithmetic" k2="-1" k3="1"/>
<feColorMatrix type="matrix" values="0 0 0 0 0.631373 0 0 0 0 0.611765 0 0 0 0 0.654902 0 0 0 1 0"/>
<feBlend mode="normal" in2="shape" result="effect1_innerShadow_237_5454"/>
<feColorMatrix in="SourceAlpha" type="matrix" values="0 0 0 0 0 0 0 0 0 0 0 0 0 0 0 0 0 0 127 0" result="hardAlpha"/>
<feOffset dy="-0.1"/>
<feGaussianBlur stdDeviation="0.075"/>
<feComposite in2="hardAlpha" operator="arithmetic" k2="-1" k3="1"/>
<feColorMatrix type="matrix" values="0 0 0 0 0.752941 0 0 0 0 0.67451 0 0 0 0 0.835294 0 0 0 1 0"/>
<feBlend mode="normal" in2="effect1_innerShadow_237_5454" result="effect2_innerShadow_237_5454"/>
</filter>
<filter id="filter5_f_237_5454" x="32.3614" y="20.4693" width="5.41875" height="5.52129" filterUnits="userSpaceOnUse" color-interpolation-filters="sRGB">
<feFlood flood-opacity="0" result="BackgroundImageFix"/>
<feBlend mode="normal" in="SourceGraphic" in2="BackgroundImageFix" result="shape"/>
<feGaussianBlur stdDeviation="0.3" result="effect1_foregroundBlur_237_5454"/>
</filter>
<filter id="filter6_ii_237_5454" x="33.5869" y="20.3566" width="8.10239" height="4.72129" filterUnits="userSpaceOnUse" color-interpolation-filters="sRGB">
<feFlood flood-opacity="0" result="BackgroundImageFix"/>
<feBlend mode="normal" in="SourceGraphic" in2="BackgroundImageFix" result="shape"/>
<feColorMatrix in="SourceAlpha" type="matrix" values="0 0 0 0 0 0 0 0 0 0 0 0 0 0 0 0 0 0 127 0" result="hardAlpha"/>
<feOffset dx="-0.2" dy="0.2"/>
<feGaussianBlur stdDeviation="0.15"/>
<feComposite in2="hardAlpha" operator="arithmetic" k2="-1" k3="1"/>
<feColorMatrix type="matrix" values="0 0 0 0 0.92549 0 0 0 0 0.4 0 0 0 0 0.576471 0 0 0 1 0"/>
<feBlend mode="normal" in2="shape" result="effect1_innerShadow_237_5454"/>
<feColorMatrix in="SourceAlpha" type="matrix" values="0 0 0 0 0 0 0 0 0 0 0 0 0 0 0 0 0 0 127 0" result="hardAlpha"/>
<feOffset dx="0.2" dy="-0.2"/>
<feGaussianBlur stdDeviation="0.15"/>
<feComposite in2="hardAlpha" operator="arithmetic" k2="-1" k3="1"/>
<feColorMatrix type="matrix" values="0 0 0 0 0.721569 0 0 0 0 0.223529 0 0 0 0 0.376471 0 0 0 1 0"/>
<feBlend mode="normal" in2="effect1_innerShadow_237_5454" result="effect2_innerShadow_237_5454"/>
</filter>
<filter id="filter7_f_237_5454" x="37.2382" y="31.6132" width="6.03071" height="5.12129" filterUnits="userSpaceOnUse" color-interpolation-filters="sRGB">
<feFlood flood-opacity="0" result="BackgroundImageFix"/>
<feBlend mode="normal" in="SourceGraphic" in2="BackgroundImageFix" result="shape"/>
<feGaussianBlur stdDeviation="0.2" result="effect1_foregroundBlur_237_5454"/>
</filter>
<filter id="filter8_ii_237_5454" x="38.25" y="31.2209" width="8.10239" height="4.72129" filterUnits="userSpaceOnUse" color-interpolation-filters="sRGB">
<feFlood flood-opacity="0" result="BackgroundImageFix"/>
<feBlend mode="normal" in="SourceGraphic" in2="BackgroundImageFix" result="shape"/>
<feColorMatrix in="SourceAlpha" type="matrix" values="0 0 0 0 0 0 0 0 0 0 0 0 0 0 0 0 0 0 127 0" result="hardAlpha"/>
<feOffset dx="-0.2" dy="0.2"/>
<feGaussianBlur stdDeviation="0.15"/>
<feComposite in2="hardAlpha" operator="arithmetic" k2="-1" k3="1"/>
<feColorMatrix type="matrix" values="0 0 0 0 0.988235 0 0 0 0 0.929412 0 0 0 0 0.439216 0 0 0 1 0"/>
<feBlend mode="normal" in2="shape" result="effect1_innerShadow_237_5454"/>
<feColorMatrix in="SourceAlpha" type="matrix" values="0 0 0 0 0 0 0 0 0 0 0 0 0 0 0 0 0 0 127 0" result="hardAlpha"/>
<feOffset dx="0.2" dy="-0.2"/>
<feGaussianBlur stdDeviation="0.15"/>
<feComposite in2="hardAlpha" operator="arithmetic" k2="-1" k3="1"/>
<feColorMatrix type="matrix" values="0 0 0 0 0.647059 0 0 0 0 0.411765 0 0 0 0 0.278431 0 0 0 1 0"/>
<feBlend mode="normal" in2="effect1_innerShadow_237_5454" result="effect2_innerShadow_237_5454"/>
</filter>
<linearGradient id="paint0_linear_237_5454" x1="32.5415" y1="37.8906" x2="44.2602" y2="43.457" gradientUnits="userSpaceOnUse">
<stop stop-color="#AFAAB6"/>
<stop offset="1" stop-color="#B7B0C0"/>
</linearGradient>
<linearGradient id="paint1_linear_237_5454" x1="13.6938" y1="47.3633" x2="33.2251" y2="34.9609" gradientUnits="userSpaceOnUse">
<stop stop-color="#A79FB2"/>
<stop offset="1" stop-color="#A79FB2" stop-opacity="0"/>
</linearGradient>
<linearGradient id="paint2_linear_237_5454" x1="21.5338" y1="3.30859" x2="21.5338" y2="43.6524" gradientUnits="userSpaceOnUse">
<stop stop-color="#EBE4F3"/>
<stop offset="1" stop-color="#E4DAF0"/>
</linearGradient>
<linearGradient id="paint3_linear_237_5454" x1="28.0941" y1="12.9401" x2="31.9105" y2="9.1236" gradientUnits="userSpaceOnUse">
<stop stop-color="#D9D3E1"/>
<stop offset="1" stop-color="#CCC7D1"/>
</linearGradient>
<linearGradient id="paint4_linear_237_5454" x1="32.7687" y1="8.37838" x2="31.8428" y2="9.28168" gradientUnits="userSpaceOnUse">
<stop offset="0.119171" stop-color="#DBDADC"/>
<stop offset="0.577307" stop-color="#CBC7D0" stop-opacity="0"/>
</linearGradient>
<linearGradient id="paint5_linear_237_5454" x1="11.4734" y1="18.4106" x2="31.5832" y2="18.4106" gradientUnits="userSpaceOnUse">
<stop stop-color="#9C96A2"/>
<stop offset="1" stop-color="#9A95A1"/>
</linearGradient>
<linearGradient id="paint6_linear_237_5454" x1="11.4734" y1="22.7465" x2="31.5832" y2="22.7465" gradientUnits="userSpaceOnUse">
<stop stop-color="#9C96A2"/>
<stop offset="1" stop-color="#9A95A1"/>
</linearGradient>
<linearGradient id="paint7_linear_237_5454" x1="11.4734" y1="27.0825" x2="31.5832" y2="27.0825" gradientUnits="userSpaceOnUse">
<stop stop-color="#9C96A2"/>
<stop offset="1" stop-color="#9A95A1"/>
</linearGradient>
<linearGradient id="paint8_linear_237_5454" x1="11.4734" y1="31.4182" x2="24.4584" y2="31.4182" gradientUnits="userSpaceOnUse">
<stop stop-color="#9C96A2"/>
<stop offset="1" stop-color="#9A95A1"/>
</linearGradient>
<linearGradient id="paint9_linear_237_5454" x1="37.6381" y1="20.5566" x2="37.6381" y2="24.8779" gradientUnits="userSpaceOnUse">
<stop stop-color="#E0437B"/>
<stop offset="1" stop-color="#DC4369"/>
</linearGradient>
<linearGradient id="paint10_linear_237_5454" x1="34.4214" y1="21.7285" x2="35.0318" y2="22.2168" gradientUnits="userSpaceOnUse">
<stop offset="0.263415" stop-color="#CA4A72"/>
<stop offset="1" stop-color="#CA4A72" stop-opacity="0"/>
</linearGradient>
<linearGradient id="paint11_linear_237_5454" x1="42.3012" y1="31.4209" x2="42.3012" y2="35.7422" gradientUnits="userSpaceOnUse">
<stop stop-color="#E4BD58"/>
<stop offset="1" stop-color="#D89D52"/>
</linearGradient>
<linearGradient id="paint12_linear_237_5454" x1="39.0845" y1="32.5928" x2="39.8414" y2="33.1543" gradientUnits="userSpaceOnUse">
<stop offset="0.263415" stop-color="#AB9365"/>
<stop offset="1" stop-color="#E3B758" stop-opacity="0"/>
</linearGradient>
</defs>
</svg>
