<svg width="31" height="31" viewBox="0 0 31 31" fill="none" xmlns="http://www.w3.org/2000/svg">
<path d="M21.7 2.58333H18.3417C14.2083 2.58333 11.625 5.16667 11.625 9.3V14.5312H17.36L14.6862 11.8575C14.4925 11.6638 14.4021 11.4183 14.4021 11.1729C14.4021 10.9275 14.4925 10.6821 14.6862 10.4883C15.0608 10.1138 15.6808 10.1138 16.0554 10.4883L20.3825 14.8154C20.7571 15.19 20.7571 15.81 20.3825 16.1846L16.0554 20.5117C15.6808 20.8862 15.0608 20.8862 14.6862 20.5117C14.3117 20.1371 14.3117 19.5171 14.6862 19.1425L17.36 16.4688H11.625V21.7C11.625 25.8333 14.2083 28.4167 18.3417 28.4167H21.6871C25.8204 28.4167 28.4037 25.8333 28.4037 21.7V9.3C28.4167 5.16667 25.8333 2.58333 21.7 2.58333Z" fill="#F8F3F3"/>
<path d="M3.552 14.5312C3.02242 14.5312 2.58325 14.9704 2.58325 15.5C2.58325 16.0296 3.02242 16.4688 3.552 16.4688H11.6249V14.5312H3.552Z" fill="#F8F3F3"/>
</svg>
