<svg width="151" height="81" viewBox="0 0 151 81" fill="none" xmlns="http://www.w3.org/2000/svg">
<path d="M10.0091 27.1278C10.6258 27.0355 11.2486 26.9893 11.8723 26.9897C13.6933 26.9286 15.508 27.2332 17.2085 27.8854C18.9089 28.5376 20.4602 29.5241 21.77 30.7861C23.0799 32.0481 24.1216 33.5598 24.833 35.2313C25.5444 36.9028 25.911 38.6997 25.911 40.5153C25.911 42.3309 25.5444 44.1279 24.833 45.7993C24.1216 47.4708 23.0799 48.9825 21.77 50.2445C20.4602 51.5065 18.9089 52.493 17.2085 53.1452C15.508 53.7974 13.6933 54.102 11.8723 54.0409C11.2482 54.0361 10.6255 53.9849 10.0091 53.8875C12.3524 55.1982 14.9991 55.8751 17.6862 55.8508C20.3733 55.8266 23.0073 55.102 25.3263 53.7492C27.6454 52.3964 29.5689 50.4624 30.9055 48.1394C32.2421 45.8164 32.9453 43.1853 32.9453 40.5077C32.9453 37.83 32.2421 35.1989 30.9055 32.8759C29.5689 30.5529 27.6454 28.6189 25.3263 27.2661C23.0073 25.9132 20.3733 25.1887 17.6862 25.1644C14.9991 25.1402 12.3524 25.8171 10.0091 27.1278Z" stroke="#985D32" stroke-miterlimit="10" stroke-linejoin="round"/>
<path d="M18.2935 17.4153C19.3545 17.2631 20.4245 17.1811 21.4963 17.1698C24.5721 17.1698 27.6177 17.7734 30.4593 18.9462C33.3008 20.1191 35.8828 21.8382 38.0577 24.0053C40.2325 26.1724 41.9577 28.7452 43.1348 31.5767C44.3118 34.4082 44.9176 37.4429 44.9176 40.5077C44.9176 43.5725 44.3118 46.6072 43.1348 49.4387C41.9577 52.2702 40.2325 54.843 38.0577 57.0101C35.8828 59.1772 33.3008 60.8963 30.4593 62.0692C27.6177 63.242 24.5721 63.8456 21.4963 63.8456C20.4245 63.8343 19.3545 63.7523 18.2935 63.6001C22.3319 65.8431 26.8883 66.9956 31.5113 66.9434C36.1344 66.8912 40.6635 65.6362 44.6498 63.3027C48.6362 60.9692 51.9414 57.6382 54.2379 53.6399C56.5344 49.6415 57.7425 45.1146 57.7425 40.5077C57.7425 35.9008 56.5344 31.3739 54.2379 27.3755C51.9414 23.3772 48.6362 20.0462 44.6498 17.7127C40.6635 15.3792 36.1344 14.1242 31.5113 14.072C26.8883 14.0198 22.3319 15.1723 18.2935 17.4153Z" fill="#985D32"/>
<path d="M66.2291 38.7431C66.5793 38.7431 66.9217 38.8466 67.2129 39.0405C67.5041 39.2344 67.7312 39.51 67.8652 39.8324C67.9992 40.1548 68.0343 40.5096 67.9659 40.8519C67.8976 41.1942 67.7289 41.5086 67.4813 41.7554C67.2336 42.0022 66.9181 42.1702 66.5746 42.2383C66.2311 42.3064 65.875 42.2714 65.5515 42.1379C65.2279 42.0043 64.9513 41.7782 64.7567 41.488C64.5621 41.1978 64.4583 40.8567 64.4583 40.5077C64.4563 40.2754 64.5007 40.045 64.589 39.83C64.6772 39.615 64.8076 39.4196 64.9724 39.2554C65.1373 39.0911 65.3332 38.9612 65.549 38.8733C65.7648 38.7853 65.996 38.7411 66.2291 38.7431Z" fill="#985D32"/>
<path d="M32.8913 40.5077H66.2292" stroke="#985D32" stroke-width="0.5" stroke-miterlimit="10"/>
<path d="M65.5362 33.5263C65.7749 33.4977 66.0155 33.5614 66.2084 33.7043C66.4013 33.8472 66.5319 34.0583 66.5733 34.2942C66.6148 34.5302 66.5639 34.773 66.4311 34.9726C66.2984 35.1723 66.0937 35.3136 65.8595 35.3675C65.6152 35.4034 65.3664 35.3436 65.1653 35.2005C64.9643 35.0574 64.8268 34.8423 64.7816 34.6003C64.7595 34.4804 64.7616 34.3572 64.7876 34.238C64.8137 34.1188 64.8633 34.006 64.9335 33.906C65.0037 33.8061 65.0931 33.7211 65.1966 33.6559C65.3 33.5907 65.4155 33.5466 65.5362 33.5263Z" fill="#985D32"/>
<path d="M63.7962 27.6956C64.0291 27.6112 64.2859 27.6219 64.5109 27.7254C64.7358 27.8288 64.9106 28.0167 64.9973 28.248C65.0779 28.4802 65.0652 28.7344 64.9618 28.9575C64.8585 29.1806 64.6726 29.3552 64.4429 29.4448C64.2166 29.5052 63.9758 29.4791 63.7678 29.3717C63.5598 29.2643 63.3996 29.0833 63.3186 28.8642C63.2376 28.6452 63.2417 28.4039 63.3301 28.1877C63.4184 27.9714 63.5847 27.7959 63.7962 27.6956Z" fill="#985D32"/>
<path d="M61.0706 22.2485C61.2853 22.1256 61.54 22.0921 61.7793 22.1553C62.0187 22.2185 62.2233 22.3733 62.3487 22.5861C62.4668 22.8027 62.4958 23.0566 62.4297 23.2941C62.3636 23.5317 62.2076 23.7344 61.9945 23.8596C61.8884 23.9195 61.7716 23.9579 61.6506 23.9726C61.5296 23.9872 61.4068 23.9779 61.2894 23.9451C61.172 23.9123 61.0623 23.8567 60.9666 23.7815C60.8709 23.7062 60.7912 23.6128 60.7319 23.5067C60.669 23.4025 60.6279 23.2867 60.6109 23.1663C60.594 23.046 60.6016 22.9234 60.6332 22.806C60.6648 22.6885 60.7198 22.5787 60.7949 22.4829C60.8701 22.3871 60.9638 22.3074 61.0706 22.2485Z" fill="#985D32"/>
<path d="M57.4367 17.3539C57.5294 17.2747 57.637 17.2146 57.7532 17.1771C57.8694 17.1397 57.9918 17.1255 58.1135 17.1355C58.2353 17.1455 58.3539 17.1794 58.4623 17.2353C58.5708 17.2913 58.667 17.3681 58.7455 17.4613C58.903 17.6521 58.9799 17.8965 58.9598 18.1428C58.9397 18.3891 58.8241 18.6179 58.6377 18.7808C58.4443 18.936 58.1978 19.01 57.9506 18.987C57.7033 18.9641 57.4748 18.8461 57.3134 18.6581C57.2349 18.5647 57.1757 18.4567 57.1393 18.3404C57.1029 18.224 57.0901 18.1017 57.1016 17.9803C57.1131 17.859 57.1486 17.7412 57.2061 17.6336C57.2636 17.5261 57.342 17.431 57.4367 17.3539Z" fill="#985D32"/>
<path d="M53.0018 13.165C53.0807 13.0723 53.1771 12.996 53.2856 12.9405C53.394 12.8849 53.5124 12.8512 53.634 12.8412C53.7555 12.8312 53.8778 12.8452 53.9939 12.8823C54.1101 12.9195 54.2176 12.979 54.3107 13.0576C54.4037 13.1362 54.4803 13.2323 54.536 13.3403C54.5918 13.4484 54.6257 13.5664 54.6357 13.6875C54.6457 13.8086 54.6317 13.9305 54.5944 14.0462C54.5571 14.1619 54.4973 14.2691 54.4185 14.3618C54.2576 14.5466 54.0307 14.6613 53.786 14.6813C53.5414 14.7014 53.2986 14.6253 53.1096 14.4693C53.0161 14.391 52.939 14.2951 52.8828 14.187C52.8267 14.0789 52.7927 13.9608 52.7827 13.8395C52.7726 13.7183 52.7869 13.5962 52.8245 13.4804C52.8621 13.3646 52.9224 13.2574 53.0018 13.165Z" fill="#985D32"/>
<path d="M47.8895 9.8047C47.9486 9.69834 48.0286 9.60494 48.1247 9.53005C48.2208 9.45516 48.3311 9.40031 48.4489 9.3688C48.5668 9.3373 48.6898 9.32978 48.8106 9.34668C48.9314 9.36357 49.0476 9.40453 49.1522 9.46714C49.2857 9.50865 49.408 9.57983 49.5099 9.6753C49.6118 9.77077 49.6906 9.88804 49.7404 10.0183C49.7902 10.1485 49.8097 10.2883 49.7973 10.4271C49.785 10.5659 49.7412 10.7001 49.6692 10.8196C49.5973 10.9391 49.499 11.0408 49.3819 11.117C49.2648 11.1931 49.1318 11.2418 48.9931 11.2593C48.8544 11.2768 48.7135 11.2627 48.581 11.2181C48.4485 11.1734 48.3278 11.0994 48.2282 11.0015C48.0291 10.8829 47.8831 10.6928 47.8201 10.4702C47.7571 10.2477 47.7819 10.0096 47.8895 9.8047Z" fill="#985D32"/>
<path d="M42.2998 7.36501C42.3624 7.19408 42.4744 7.04545 42.6217 6.93791C42.769 6.83037 42.9449 6.76873 43.1274 6.76077C43.3098 6.75281 43.4905 6.79889 43.6466 6.89319C43.8028 6.98749 43.9274 7.12578 44.0047 7.2906C44.082 7.45542 44.1086 7.63939 44.0811 7.81926C44.0536 7.99913 43.9732 8.16684 43.8501 8.30122C43.727 8.43559 43.5667 8.5306 43.3895 8.57426C43.2122 8.61791 43.0259 8.60825 42.8541 8.54649C42.7385 8.50713 42.632 8.44493 42.5411 8.36361C42.4501 8.28229 42.3766 8.18352 42.3248 8.07322C42.2731 7.96292 42.2442 7.84334 42.2399 7.72165C42.2356 7.59997 42.256 7.47866 42.2998 7.36501Z" fill="#985D32"/>
<path d="M65.5362 47.4891C65.7158 47.5194 65.9004 47.4961 66.0668 47.4221C66.2331 47.3482 66.3739 47.2269 66.4713 47.0734C66.5686 46.92 66.6183 46.7413 66.614 46.5598C66.6098 46.3783 66.5517 46.2022 66.4472 46.0535C66.3427 45.9047 66.1965 45.7901 66.0268 45.724C65.8571 45.6579 65.6716 45.6432 65.4936 45.6819C65.3156 45.7205 65.1531 45.8107 65.0264 45.9412C64.8997 46.0716 64.8145 46.2365 64.7816 46.415C64.7595 46.535 64.7616 46.6582 64.7876 46.7774C64.8137 46.8966 64.8633 47.0094 64.9335 47.1093C65.0037 47.2093 65.0931 47.2943 65.1966 47.3595C65.3 47.4247 65.4155 47.4687 65.5362 47.4891Z" fill="#985D32"/>
<path d="M63.7963 53.3965C63.968 53.4582 64.1542 53.4679 64.3315 53.4242C64.5088 53.3806 64.6691 53.2856 64.7922 53.1512C64.9153 53.0168 64.9957 52.8491 65.0232 52.6692C65.0508 52.4894 65.0242 52.3054 64.9468 52.1406C64.8695 51.9758 64.7449 51.8375 64.5887 51.7432C64.4326 51.6489 64.2518 51.6028 64.0694 51.6107C63.887 51.6187 63.711 51.6803 63.5637 51.7879C63.4165 51.8954 63.3044 52.0441 63.2418 52.215C63.2002 52.3288 63.1815 52.4497 63.1869 52.5708C63.1922 52.6918 63.2214 52.8106 63.2729 52.9204C63.3244 53.0302 63.3972 53.1287 63.487 53.2104C63.5768 53.2921 63.6819 53.3553 63.7963 53.3965Z" fill="#985D32"/>
<path d="M61.0707 58.7668C61.1702 58.8647 61.2908 58.9387 61.4233 58.9834C61.5558 59.028 61.6968 59.0421 61.8355 59.0246C61.9743 59.0071 62.1072 58.9584 62.2243 58.8823C62.3414 58.8061 62.4397 58.7044 62.5116 58.5849C62.5836 58.4654 62.6273 58.3312 62.6396 58.1924C62.652 58.0536 62.6326 57.9138 62.5828 57.7836C62.533 57.6533 62.4541 57.5361 62.3522 57.4406C62.2504 57.3451 62.128 57.274 61.9945 57.2324C61.7968 57.171 61.5841 57.1775 61.3905 57.2509C61.1969 57.3244 61.0337 57.4606 60.9271 57.6376C60.8206 57.8146 60.7768 58.0222 60.8028 58.227C60.8288 58.4318 60.9231 58.6219 61.0707 58.7668Z" fill="#985D32"/>
<path d="M57.4367 63.6615C57.5285 63.7426 57.6358 63.8044 57.7523 63.8431C57.8687 63.8817 57.9918 63.8965 58.1141 63.8865C58.2364 63.8764 58.3555 63.8418 58.464 63.7847C58.5725 63.7275 58.6682 63.6491 58.7455 63.5541C58.8763 63.3623 58.9311 63.1289 58.8991 62.8992C58.8671 62.6695 58.7506 62.4598 58.5723 62.3107C58.394 62.1617 58.1665 62.0839 57.9339 62.0925C57.7014 62.1011 57.4802 62.1955 57.3134 62.3572C57.2349 62.4506 57.1757 62.5586 57.1393 62.6749C57.1029 62.7913 57.0901 62.9137 57.1016 63.035C57.1131 63.1563 57.1486 63.2741 57.2061 63.3817C57.2636 63.4892 57.342 63.5843 57.4367 63.6615Z" fill="#985D32"/>
<path d="M53.0018 67.8504C53.0792 67.9447 53.1746 68.0228 53.2825 68.0801C53.3904 68.1374 53.5087 68.1728 53.6304 68.1842C53.7522 68.1956 53.875 68.1828 53.9918 68.1466C54.1086 68.1104 54.2169 68.0514 54.3106 67.9731C54.406 67.8961 54.4847 67.8007 54.5421 67.6926C54.5994 67.5844 54.6342 67.4658 54.6442 67.344C54.6543 67.2221 54.6394 67.0994 54.6006 66.9834C54.5618 66.8674 54.4998 66.7604 54.4184 66.6689C54.3415 66.5731 54.2462 66.4937 54.1381 66.4351C54.03 66.3766 53.9112 66.3402 53.7888 66.328C53.6664 66.3158 53.5428 66.3281 53.4252 66.3642C53.3076 66.4003 53.1984 66.4594 53.104 66.5381C53.0097 66.6168 52.9321 66.7134 52.8757 66.8224C52.8194 66.9314 52.7854 67.0505 52.7759 67.1728C52.7664 67.295 52.7814 67.4179 52.8202 67.5343C52.859 67.6506 52.9207 67.7581 53.0018 67.8504Z" fill="#985D32"/>
<path d="M47.8895 71.2106C47.9488 71.3167 48.0286 71.4101 48.1243 71.4853C48.22 71.5606 48.3297 71.6162 48.4471 71.649C48.5644 71.6818 48.6872 71.6912 48.8082 71.6765C48.9292 71.6618 49.0461 71.6234 49.1521 71.5635C49.3653 71.4384 49.5213 71.2356 49.5874 70.9981C49.6535 70.7605 49.6244 70.5067 49.5063 70.29C49.3809 70.0773 49.1763 69.9224 48.9369 69.8592C48.6976 69.796 48.4429 69.8295 48.2282 69.9525C48.1214 70.0113 48.0278 70.091 47.9526 70.1868C47.8775 70.2826 47.8224 70.3924 47.7908 70.5099C47.7592 70.6273 47.7516 70.7498 47.7686 70.8702C47.7855 70.9906 47.8266 71.1064 47.8895 71.2106Z" fill="#985D32"/>
<path d="M42.2999 73.6503C42.3648 73.8195 42.4784 73.9657 42.6264 74.0709C42.7744 74.176 42.9502 74.2353 43.1318 74.2413C43.3135 74.2474 43.4929 74.2 43.6476 74.1049C43.8023 74.0099 43.9255 73.8715 44.0017 73.7071C44.0778 73.5426 44.1036 73.3594 44.0758 73.1805C44.048 73.0015 43.9678 72.8347 43.8454 72.7009C43.7229 72.5671 43.5636 72.4722 43.3873 72.4282C43.211 72.3842 43.0255 72.393 42.8542 72.4535C42.738 72.4945 42.6313 72.5583 42.5402 72.641C42.4491 72.7238 42.3756 72.8239 42.3239 72.9355C42.2723 73.047 42.2435 73.1677 42.2393 73.2905C42.2352 73.4132 42.2558 73.5356 42.2999 73.6503Z" fill="#985D32"/>
<path d="M11 32L12.5104 38.4896L19 40L12.5104 41.5104L11 48L9.48962 41.5104L3 40L9.48962 38.4896L11 32Z" fill="#985D32"/>
<path d="M33 70L33.7552 73.2448L37 74L33.7552 74.7552L33 78L32.2448 74.7552L29 74L32.2448 73.2448L33 70Z" fill="#985D32"/>
<path d="M33 3L33.7552 6.24481L37 7L33.7552 7.75519L33 11L32.2448 7.75519L29 7L32.2448 6.24481L33 3Z" fill="#985D32"/>
<path d="M92.488 36H87.144C86.52 36 86.168 35.648 86.168 35.024V25.616C86.168 24.992 86.52 24.64 87.144 24.64H92.488C92.952 24.64 93.336 25.024 93.336 25.488C93.336 25.952 92.952 26.336 92.488 26.336H88.04V29.424H91.544C91.992 29.424 92.36 29.808 92.36 30.24C92.36 30.688 91.992 31.072 91.544 31.072H88.04V34.304H92.488C92.952 34.304 93.336 34.688 93.336 35.152C93.336 35.616 92.952 36 92.488 36Z" fill="#985D32"/>
<path d="M99.3481 27.52C101.108 27.52 102.708 28.592 102.708 31.136V35.136C102.708 35.76 102.244 36.096 101.78 36.096C101.316 36.096 100.852 35.76 100.852 35.136V31.408C100.852 29.648 99.8441 29.104 98.8041 29.104C97.5081 29.104 96.6441 29.936 96.6281 31.504V35.168C96.6281 35.76 96.1641 36.08 95.7001 36.08C95.2361 36.08 94.7721 35.76 94.7721 35.168V28.528C94.7721 27.92 95.2361 27.616 95.7001 27.616C96.1641 27.616 96.6281 27.92 96.6281 28.528V29.024C97.1561 28.08 98.0681 27.52 99.3481 27.52Z" fill="#985D32"/>
<path d="M112.507 31.392C112.571 32.032 112.235 32.368 111.611 32.368H105.867C105.915 33.712 107.067 34.64 108.443 34.64C109.435 34.64 110.107 34.192 110.571 33.568C110.747 33.328 110.971 33.232 111.179 33.232C111.579 33.232 111.963 33.616 111.963 34.048C111.963 34.224 111.899 34.4 111.755 34.576C111.067 35.424 109.947 36.16 108.427 36.16C105.899 36.16 104.059 34.448 104.059 31.856C104.059 29.392 105.819 27.52 108.299 27.52C110.635 27.52 112.251 29.024 112.507 31.392ZM108.299 29.008C106.971 29.008 105.979 29.904 105.883 31.136H110.731C110.635 29.92 109.675 29.008 108.299 29.008Z" fill="#985D32"/>
<path d="M117.719 27.664C118.439 27.6 118.727 28.016 118.727 28.4C118.727 28.72 118.519 29.248 117.703 29.264C116.535 29.28 115.799 29.904 115.799 31.056V35.168C115.799 35.776 115.351 36.096 114.887 36.096C114.439 36.096 113.975 35.776 113.975 35.168V28.528C113.975 27.92 114.439 27.616 114.887 27.616C115.351 27.616 115.799 27.92 115.799 28.528V28.896C116.167 28.208 116.775 27.744 117.719 27.664Z" fill="#985D32"/>
<path d="M127.187 27.616C127.635 27.616 128.083 27.92 128.083 28.528V35.2C128.083 38.16 126.339 39.92 123.507 39.92C122.323 39.92 121.155 39.584 120.387 39.136C120.035 38.928 119.875 38.624 119.875 38.336C119.875 37.968 120.147 37.648 120.595 37.648C121.107 37.648 121.891 38.32 123.379 38.32C125.283 38.32 126.259 37.216 126.259 35.2V34.304C125.795 35.44 124.627 36.16 123.123 36.16C120.611 36.16 119.043 34.224 119.043 31.824C119.043 29.36 120.675 27.52 123.219 27.52C124.451 27.52 125.635 28.128 126.259 29.2V28.576C126.259 27.936 126.723 27.616 127.187 27.616ZM123.587 34.512C125.139 34.512 126.243 33.36 126.243 31.84C126.243 30.336 125.139 29.184 123.587 29.184C122.019 29.184 120.899 30.288 120.899 31.84C120.899 33.408 122.019 34.512 123.587 34.512Z" fill="#985D32"/>
<path d="M130.919 26.656C130.327 26.656 129.831 26.176 129.831 25.584C129.831 24.976 130.327 24.496 130.919 24.496C131.511 24.496 131.991 24.992 131.991 25.584C131.991 26.176 131.511 26.656 130.919 26.656ZM129.991 35.168V28.528C129.991 27.92 130.455 27.616 130.919 27.616C131.367 27.616 131.831 27.92 131.831 28.528V35.168C131.831 35.776 131.367 36.096 130.919 36.096C130.471 36.096 129.991 35.776 129.991 35.168Z" fill="#985D32"/>
<path d="M140.013 35.568C139.341 35.952 138.525 36.16 137.693 36.16C135.549 36.16 133.341 34.784 133.341 31.84C133.341 28.88 135.549 27.552 137.677 27.552C138.525 27.552 139.341 27.76 140.013 28.144C140.365 28.352 140.525 28.656 140.525 28.96C140.525 29.344 140.269 29.696 139.869 29.696C139.757 29.696 139.629 29.664 139.485 29.584C139.021 29.344 138.477 29.216 137.949 29.216C136.541 29.216 135.165 30.048 135.165 31.856C135.165 33.552 136.477 34.48 137.917 34.48C138.429 34.48 138.973 34.368 139.469 34.112C139.597 34.048 139.709 34.016 139.821 34.016C140.221 34.016 140.493 34.384 140.493 34.784C140.493 35.072 140.349 35.376 140.013 35.568Z" fill="#985D32"/>
<path d="M149.75 27.632C150.198 27.632 150.662 27.936 150.662 28.544V35.184C150.662 35.776 150.214 36.096 149.75 36.096C149.286 36.096 148.822 35.776 148.822 35.184V34.304C148.358 35.44 147.19 36.16 145.686 36.16C143.174 36.16 141.606 34.224 141.606 31.824C141.606 29.36 143.238 27.52 145.782 27.52C147.014 27.52 148.198 28.128 148.822 29.2V28.544C148.822 27.936 149.286 27.632 149.75 27.632ZM146.15 34.512C147.702 34.512 148.806 33.36 148.806 31.84C148.806 30.336 147.702 29.184 146.15 29.184C144.582 29.184 143.462 30.288 143.462 31.84C143.462 33.408 144.582 34.512 146.15 34.512Z" fill="#985D32"/>
<path d="M92.488 54H87.144C86.52 54 86.168 53.648 86.168 53.024V43.616C86.168 42.992 86.52 42.64 87.144 42.64H92.488C92.952 42.64 93.336 43.024 93.336 43.488C93.336 43.952 92.952 44.336 92.488 44.336H88.04V47.424H91.544C91.992 47.424 92.36 47.808 92.36 48.24C92.36 48.688 91.992 49.072 91.544 49.072H88.04V52.304H92.488C92.952 52.304 93.336 52.688 93.336 53.152C93.336 53.616 92.952 54 92.488 54Z" fill="#985D32"/>
<path d="M103.796 45.52C105.412 45.52 106.868 46.528 106.868 48.864V53.136C106.868 53.76 106.404 54.096 105.94 54.096C105.476 54.096 105.012 53.76 105.012 53.136V49.152C105.012 47.584 104.244 47.104 103.444 47.104C102.42 47.104 101.748 47.872 101.748 49.248V53.136C101.748 53.76 101.284 54.096 100.82 54.096C100.356 54.096 99.8921 53.76 99.8921 53.136V49.152C99.8921 47.584 99.1241 47.104 98.3241 47.104C97.3001 47.104 96.6441 47.856 96.6281 49.248V53.168C96.6281 53.76 96.1641 54.08 95.7001 54.08C95.2361 54.08 94.7721 53.76 94.7721 53.168V46.528C94.7721 45.92 95.2521 45.616 95.7161 45.616C96.1641 45.616 96.6281 45.904 96.6281 46.496V46.816C97.0601 45.984 97.8441 45.52 98.8681 45.52C99.8601 45.52 100.74 45.952 101.204 46.944C101.684 46.048 102.564 45.52 103.796 45.52Z" fill="#985D32"/>
<path d="M117.671 45.52C119.287 45.52 120.743 46.528 120.743 48.864V53.136C120.743 53.76 120.279 54.096 119.815 54.096C119.351 54.096 118.887 53.76 118.887 53.136V49.152C118.887 47.584 118.119 47.104 117.319 47.104C116.295 47.104 115.623 47.872 115.623 49.248V53.136C115.623 53.76 115.159 54.096 114.695 54.096C114.231 54.096 113.767 53.76 113.767 53.136V49.152C113.767 47.584 112.999 47.104 112.199 47.104C111.175 47.104 110.519 47.856 110.503 49.248V53.168C110.503 53.76 110.039 54.08 109.575 54.08C109.111 54.08 108.647 53.76 108.647 53.168V46.528C108.647 45.92 109.127 45.616 109.591 45.616C110.039 45.616 110.503 45.904 110.503 46.496V46.816C110.935 45.984 111.719 45.52 112.743 45.52C113.735 45.52 114.615 45.952 115.079 46.944C115.559 46.048 116.439 45.52 117.671 45.52Z" fill="#985D32"/>
<path d="M130.234 45.632C130.682 45.632 131.146 45.936 131.146 46.544V53.184C131.146 53.776 130.698 54.096 130.234 54.096C129.77 54.096 129.306 53.776 129.306 53.184V52.304C128.842 53.44 127.674 54.16 126.17 54.16C123.658 54.16 122.09 52.224 122.09 49.824C122.09 47.36 123.722 45.52 126.266 45.52C127.498 45.52 128.682 46.128 129.306 47.2V46.544C129.306 45.936 129.77 45.632 130.234 45.632ZM126.634 52.512C128.186 52.512 129.29 51.36 129.29 49.84C129.29 48.336 128.186 47.184 126.634 47.184C125.066 47.184 123.946 48.288 123.946 49.84C123.946 51.408 125.066 52.512 126.634 52.512Z" fill="#985D32"/>
</svg>
