<svg width="29" height="29" viewBox="0 0 29 29" fill="none" xmlns="http://www.w3.org/2000/svg">
<path d="M14.5001 16.9166C8.44636 16.9166 3.51636 20.9766 3.51636 25.9791C3.51636 26.3175 3.78219 26.5833 4.12052 26.5833H24.8797C25.218 26.5833 25.4839 26.3175 25.4839 25.9791C25.4839 20.9766 20.5539 16.9166 14.5001 16.9166Z" fill="#F8F3F3"/>
<path d="M14.4999 2.41663C13.0741 2.41663 11.7691 2.91204 10.7299 3.74579C9.34034 4.84538 8.45825 6.54913 8.45825 8.45829C8.45825 9.59413 8.77242 10.6575 9.34034 11.5637C10.3795 13.3158 12.2887 14.5 14.4999 14.5C16.0224 14.5 17.412 13.9441 18.4753 12.9895C18.9466 12.5908 19.3574 12.1075 19.6716 11.5637C20.2274 10.6575 20.5416 9.59413 20.5416 8.45829C20.5416 5.12329 17.8349 2.41663 14.4999 2.41663ZM17.6295 7.80579L14.4033 10.7783C14.1858 10.9837 13.9078 11.0804 13.6299 11.0804C13.3399 11.0804 13.0499 10.9716 12.8324 10.7541L11.3462 9.25579C10.8991 8.80871 10.8991 8.09579 11.3462 7.64871C11.7933 7.20163 12.5062 7.20163 12.9533 7.64871L13.6662 8.36163L16.0949 6.12621C16.5541 5.70329 17.267 5.72746 17.6899 6.18663C18.1128 6.65788 18.0887 7.38288 17.6295 7.80579Z" fill="#F8F3F3"/>
</svg>
