<svg width="34" height="34" viewBox="0 0 34 34" fill="none" xmlns="http://www.w3.org/2000/svg">
<path d="M33.6667 17C33.6667 7.81665 26.1833 0.333313 17 0.333313C7.81668 0.333313 0.333344 7.81665 0.333344 17C0.333344 21.8333 2.41668 26.1833 5.71668 29.2333C5.71668 29.25 5.71668 29.25 5.70001 29.2666C5.86668 29.4333 6.06668 29.5666 6.23334 29.7166C6.33334 29.8 6.41668 29.8833 6.51668 29.95C6.81668 30.2 7.15001 30.4333 7.46668 30.6666C7.58334 30.75 7.68334 30.8166 7.80001 30.9C8.11668 31.1166 8.45001 31.3166 8.80001 31.5C8.91668 31.5666 9.05001 31.65 9.16668 31.7166C9.50001 31.9 9.85001 32.0666 10.2167 32.2166C10.35 32.2833 10.4833 32.35 10.6167 32.4C10.9833 32.55 11.35 32.6833 11.7167 32.8C11.85 32.85 11.9833 32.9 12.1167 32.9333C12.5167 33.05 12.9167 33.15 13.3167 33.25C13.4333 33.2833 13.55 33.3166 13.6833 33.3333C14.15 33.4333 14.6167 33.5 15.1 33.55C15.1667 33.55 15.2333 33.5666 15.3 33.5833C15.8667 33.6333 16.4333 33.6666 17 33.6666C17.5667 33.6666 18.1333 33.6333 18.6833 33.5833C18.75 33.5833 18.8167 33.5666 18.8833 33.55C19.3667 33.5 19.8333 33.4333 20.3 33.3333C20.4167 33.3166 20.5333 33.2666 20.6667 33.25C21.0667 33.15 21.4833 33.0666 21.8667 32.9333C22 32.8833 22.1333 32.8333 22.2667 32.8C22.6333 32.6666 23.0167 32.55 23.3667 32.4C23.5 32.35 23.6333 32.2833 23.7667 32.2166C24.1167 32.0666 24.4667 31.9 24.8167 31.7166C24.95 31.65 25.0667 31.5666 25.1833 31.5C25.5167 31.3 25.85 31.1166 26.1833 30.9C26.3 30.8333 26.4 30.75 26.5167 30.6666C26.85 30.4333 27.1667 30.2 27.4667 29.95C27.5667 29.8666 27.65 29.7833 27.75 29.7166C27.9333 29.5666 28.1167 29.4166 28.2833 29.2666C28.2833 29.25 28.2833 29.25 28.2667 29.2333C31.5833 26.1833 33.6667 21.8333 33.6667 17ZM25.2333 25.2833C20.7167 22.25 13.3167 22.25 8.76668 25.2833C8.03334 25.7666 7.43334 26.3333 6.93334 26.95C4.40001 24.3833 2.83334 20.8666 2.83334 17C2.83334 9.18331 9.18334 2.83331 17 2.83331C24.8167 2.83331 31.1667 9.18331 31.1667 17C31.1667 20.8666 29.6 24.3833 27.0667 26.95C26.5833 26.3333 25.9667 25.7666 25.2333 25.2833Z" fill="#76363E"/>
<path d="M17 8.54999C13.55 8.54999 10.75 11.35 10.75 14.8C10.75 18.1833 13.4 20.9333 16.9167 21.0333C16.9667 21.0333 17.0333 21.0333 17.0667 21.0333C17.1 21.0333 17.15 21.0333 17.1833 21.0333C17.2 21.0333 17.2167 21.0333 17.2167 21.0333C20.5833 20.9167 23.2333 18.1833 23.25 14.8C23.25 11.35 20.45 8.54999 17 8.54999Z" fill="#76363E"/>
</svg>
