<svg width="35" height="37" viewBox="0 0 35 37" fill="none" xmlns="http://www.w3.org/2000/svg">
<g filter="url(#filter0_d_234_29151)">
<path d="M22.912 2.58334H12.0878C7.38617 2.58334 4.58325 5.38626 4.58325 10.0879V20.8992C4.58325 25.6138 7.38617 28.4167 12.0878 28.4167H22.8991C27.6008 28.4167 30.4037 25.6138 30.4037 20.9121V10.0879C30.4166 5.38626 27.6137 2.58334 22.912 2.58334ZM17.4999 23.9992C13.4053 23.9992 10.0728 20.6667 10.0728 16.5721C10.0728 12.555 13.2762 9.28709 17.2545 9.14501L16.7766 8.58959C16.4278 8.18918 16.4666 7.56918 16.867 7.22043C17.2674 6.87168 17.8874 6.91043 18.2362 7.31084L20.3803 9.76501C20.4062 9.79084 20.4191 9.81668 20.4449 9.84251C20.4966 9.92001 20.5483 10.0104 20.5741 10.1008C20.587 10.1525 20.5999 10.2042 20.6128 10.2558C20.6387 10.3721 20.6258 10.5013 20.5999 10.6175C20.5741 10.7208 20.5353 10.8242 20.4837 10.9275C20.4708 10.9533 20.4449 10.9792 20.432 11.005C20.3803 11.0825 20.3028 11.1471 20.2253 11.1988C20.2253 11.1988 20.2124 11.1988 20.2124 11.2117L17.7066 13.0458C17.2674 13.3558 16.6733 13.2654 16.3503 12.8392C16.0403 12.4129 16.1308 11.8058 16.557 11.4829L17.0866 11.0954C14.2449 11.3021 11.9974 13.6788 11.9974 16.5721C11.9974 19.5946 14.4645 22.0617 17.487 22.0617C20.5095 22.0617 22.9766 19.5946 22.9766 16.5721C22.9766 15.4871 22.6537 14.4279 22.0595 13.5238C21.7624 13.0846 21.8787 12.4775 22.3308 12.1804C22.7828 11.8833 23.377 11.9996 23.6741 12.4517C24.4878 13.6788 24.927 15.0996 24.927 16.5721C24.927 20.6667 21.5945 23.9992 17.4999 23.9992Z" fill="#F8F3F3"/>
</g>
<defs>
<filter id="filter0_d_234_29151" x="-2" y="0" width="39" height="39" filterUnits="userSpaceOnUse" color-interpolation-filters="sRGB">
<feFlood flood-opacity="0" result="BackgroundImageFix"/>
<feColorMatrix in="SourceAlpha" type="matrix" values="0 0 0 0 0 0 0 0 0 0 0 0 0 0 0 0 0 0 127 0" result="hardAlpha"/>
<feOffset dy="4"/>
<feGaussianBlur stdDeviation="2"/>
<feComposite in2="hardAlpha" operator="out"/>
<feColorMatrix type="matrix" values="0 0 0 0 0 0 0 0 0 0 0 0 0 0 0 0 0 0 0.25 0"/>
<feBlend mode="normal" in2="BackgroundImageFix" result="effect1_dropShadow_234_29151"/>
<feBlend mode="normal" in="SourceGraphic" in2="effect1_dropShadow_234_29151" result="shape"/>
</filter>
</defs>
</svg>
