<svg width="20" height="20" viewBox="0 0 20 20" fill="none" xmlns="http://www.w3.org/2000/svg">
<circle cx="10" cy="10" r="10" fill="#96CD5E"/>
<g clip-path="url(#clip0_285_5358)">
<path d="M8.90955 13C8.71508 12.9998 8.52864 12.92 8.39121 12.7782L6.21517 10.533C6.08561 10.3897 6.01507 10.2001 6.01842 10.0043C6.02178 9.80841 6.09876 9.62154 6.23315 9.48303C6.36754 9.34452 6.54884 9.26517 6.73886 9.26172C6.92889 9.25826 7.11281 9.33097 7.25186 9.46451L8.90955 11.1755L12.7482 7.22175C12.8153 7.14747 12.8963 7.0879 12.9863 7.04658C13.0763 7.00526 13.1734 6.98305 13.2719 6.98126C13.3704 6.97947 13.4682 6.99813 13.5595 7.03615C13.6509 7.07417 13.7338 7.13077 13.8035 7.20255C13.8731 7.27434 13.928 7.35986 13.9649 7.45399C14.0018 7.54813 14.0199 7.64895 14.0182 7.75045C14.0165 7.85196 13.9949 7.95207 13.9548 8.04481C13.9147 8.13754 13.8569 8.22099 13.7849 8.2902L9.42789 12.7782C9.29046 12.92 9.10402 12.9998 8.90955 13Z" fill="#F8F3F3"/>
</g>
<defs>
<clipPath id="clip0_285_5358">
<rect width="8" height="6" fill="white" transform="translate(6 7)"/>
</clipPath>
</defs>
</svg>
