<svg width="60" height="60" viewBox="0 0 60 60" fill="none" xmlns="http://www.w3.org/2000/svg">
<path d="M40.475 5H19.525C10.425 5 5 10.425 5 19.525V40.45C5 49.575 10.425 55 19.525 55H40.45C49.55 55 54.975 49.575 54.975 40.475V19.525C55 10.425 49.575 5 40.475 5Z" fill="#F588A9"/>
<path d="M16.7776 27.8824L34.0542 20.4655C35.7591 19.6929 41.5407 17.2206 41.5407 17.2206C41.5407 17.2206 44.2092 16.139 43.9868 18.7658C43.9127 19.8474 43.3197 23.6331 42.7267 27.7338L40.8736 39.8695C40.8736 39.8695 40.7254 41.6465 39.4653 41.9555C38.2051 42.2645 36.1297 40.8739 35.7591 40.5648C35.4626 40.333 30.1997 36.8564 28.2725 35.1567C27.7536 34.6931 27.1607 33.766 28.3466 32.6844C31.0151 30.1348 34.2024 26.9672 36.1297 24.9584C37.0192 24.0313 37.9087 21.8681 34.2024 24.4949L23.7452 31.8226C23.7452 31.8226 22.5593 32.5952 20.3355 31.8999C18.1118 31.2046 15.5175 30.2774 15.5175 30.2774C15.5175 30.2774 13.7385 29.1185 16.7776 27.8824Z" fill="white"/>
</svg>
