<svg width="25" height="25" viewBox="0 0 25 25" fill="none" xmlns="http://www.w3.org/2000/svg">
<path d="M11.1622 12.522L7.91591 15.9119L5.99231 17.9195C4.62399 19.349 2.59644 19.403 1.17487 18.025C0.188562 17.0697 -0.283035 15.9245 0.177581 14.565C0.338162 14.0925 0.656788 13.657 0.968654 13.2553C1.39124 12.7153 1.42166 12.2722 0.957667 11.7676C0.0161523 10.7448 -0.253451 9.5777 0.306893 8.30176C0.898509 6.95154 1.93974 6.11273 3.45597 6.02327C3.89617 5.99457 4.33731 6.06285 4.74815 6.22326C5.15899 6.38367 5.52949 6.6323 5.83342 6.95154C7.60827 8.75408 9.34002 10.5937 11.0895 12.4191C11.1158 12.4519 11.1401 12.4862 11.1622 12.522Z" fill="#F8F3F3"/>
<path d="M12.5314 13.8629C13.1382 14.441 13.7332 15.0064 14.3265 15.5735C15.5097 16.7018 16.6608 17.8596 17.8762 18.949C19.16 20.1043 19.668 22.3845 17.7384 24.0739C16.3524 25.2866 14.6561 25.2722 13.2751 24.0579C12.692 23.5456 12.2854 23.5516 11.698 24.0697C9.38988 26.0883 6.77072 24.4705 6.27714 22.4891C5.98894 21.333 6.3549 20.3237 7.12823 19.4925C8.8718 17.6191 10.661 15.7878 12.4316 13.9397C12.4635 13.9125 12.4968 13.8868 12.5314 13.8629Z" fill="#F8F3F3"/>
<path d="M13.8481 12.4638C14.7795 11.4905 15.7112 10.5172 16.6431 9.54395C17.4156 8.73776 18.1881 7.93157 18.9605 7.12538C20.3635 5.65365 22.3818 5.61231 23.849 7.02834C25.2697 8.39965 25.3474 10.2663 24.0467 11.7414C23.5447 12.3102 23.5557 12.7195 24.0611 13.2925C26.0895 15.5861 24.4837 18.23 22.4654 18.7186C21.3312 18.9921 20.3322 18.6452 19.5167 17.8899C17.6226 16.1372 15.7743 14.3355 13.9081 12.5524C13.8851 12.525 13.865 12.4953 13.8481 12.4638Z" fill="#F8F3F3"/>
<path d="M12.484 11.1313L10.5926 9.1583C9.44904 7.96505 8.3013 6.77517 7.16371 5.57602C5.40492 3.71948 6.21037 0.792893 8.66304 0.110193C9.64005 -0.161537 10.514 0.0882546 11.3211 0.651124C11.4751 0.761611 11.6227 0.880791 11.7631 1.00808C12.2575 1.4469 12.7283 1.45197 13.221 1.00049C13.671 0.567944 14.2282 0.262707 14.8353 0.1161C16.103 -0.171663 17.146 0.247749 17.9818 1.18952C18.8177 2.13129 19.0332 3.21483 18.5523 4.38699C18.3747 4.82554 18.1202 5.22902 17.801 5.57855C16.087 7.4064 14.3426 9.20724 12.6091 11.0148C12.5795 11.0444 12.5474 11.0722 12.484 11.1313Z" fill="#F8F3F3"/>
</svg>
